# xmcd
#
# Track frame offsets:
#	150
#	21639
#	31478
#	43030
#	66995
#	81490
#	95320
#	114269
#	146853
#	160388
#	175538
#	177515
#
# Disc length: 2516 seconds
#
# Revision: 1
# Processed by: cddbd v1.5.2PL0 Copyright (c) Steve Scherf et al.
# Submitted via: audiograbber 1.83.01
#
DISCID=a809d20c
DTITLE=Davina and The Vagabonds - Live @ The Times (Set 2)
DYEAR=2008
DGENRE=Blues
TTITLE0=Love
TTITLE1=Hate
TTITLE2=No Buts , No Maybes
TTITLE3=Dream a Little Dream of Me
TTITLE4=Put a Lid on It
TTITLE5=I'm Gonna be a Wheel Someday
TTITLE6=Honey Pie
TTITLE7=St. James Infirmary
TTITLE8=Back to Memphis
TTITLE9=Under Lock and Key
TTITLE10=MPLS in February
TTITLE11=Finally Home
EXTD=
EXTT0=
EXTT1=
EXTT2=
EXTT3=
EXTT4=
EXTT5=
EXTT6=
EXTT7=
EXTT8=
EXTT9=
EXTT10=
EXTT11=
PLAYORDER=
